<svg xmlns="http://www.w3.org/2000/svg" viewBox="0 0 512 512">
  <defs>
    <linearGradient id="g" x1="80" y1="64" x2="432" y2="448" gradientUnits="userSpaceOnUse">
      <stop stop-color="#8455ef"/>
      <stop offset="1" stop-color="#2f8cff"/>
    </linearGradient>
  </defs>
  <rect width="512" height="512" rx="112" fill="#f9f9ff"/>
  <rect x="56" y="56" width="400" height="400" rx="96" fill="url(#g)"/>
  <path fill="#fff" d="M146 173c0-33 27-60 60-60h100c33 0 60 27 60 60v92c0 33-27 60-60 60h-56l-70 56c-10 8-25 1-25-12v-52c-6-3-11-7-16-12-11-11-18-26-18-42v-90Zm60-16c-9 0-16 7-16 16v90c0 9 7 16 16 16h12c12 0 22 10 22 22v14l37-30c4-4 10-6 16-6h13c9 0 16-7 16-16v-90c0-9-7-16-16-16H206Z"/>
  <circle cx="218" cy="219" r="18" fill="#fff"/>
  <circle cx="256" cy="219" r="18" fill="#fff"/>
  <circle cx="294" cy="219" r="18" fill="#fff"/>
</svg>
